# xmcd
#
# Track frame offsets:
#	162
#	20150
#	39535
#	66420
#
# Disc length: 1132 seconds
#
# Revision: 2
# Processed by: cddbd v1.4PL0 Copyright (c) Steve Scherf et al.
# Submitted via: dBpowerAMP V4.0
#
DISCID=35046a04
DTITLE=Daniel Ash - Get Out Of Control CD Single
DYEAR=1993
DGENRE=AlternRock
TTITLE0=Get Out Of Control (Album Mix)
TTITLE1=The Hedonist (Edit)
TTITLE2=Get Out Of Control (Aortalesque Mix)
TTITLE3=Get Out Of Control (Prostated Mix)
EXTD=
EXTT0=
EXTT1=
EXTT2=
EXTT3=
PLAYORDER=
